<svg width="245" height="401" viewBox="0 0 245 401" fill="none" xmlns="http://www.w3.org/2000/svg">
<g opacity="0.7">
<path fill-rule="evenodd" clip-rule="evenodd" d="M122.314 51.681C83.0946 51.7967 51.6974 83.2661 51.7009 122.458C51.7026 161.674 83.7558 193.633 122.806 193.362C161.775 193.091 193.474 161.097 193.326 122.185C193.175 83.1279 161.386 51.567 122.314 51.681ZM122.388 245C54.7997 244.94 -0.0793262 189.854 8.6076e-05 122.153C0.077772 54.7123 55.0241 -0.0603884 122.54 4.99695e-05C190.21 0.0587615 245.284 55.2563 244.999 122.73C244.714 190.201 189.702 245.06 122.388 245Z" fill="white"/>
<path fill-rule="evenodd" clip-rule="evenodd" d="M0 288.564C6.73953 285.673 13.3822 283.854 18.9575 280.253C45.7928 262.912 72.7804 263.82 100.181 278.337C102.358 279.492 104.554 280.62 106.651 281.92C118.087 289.016 129.163 288.01 140.527 281.28C147.849 276.942 155.457 272.558 163.482 270.185C182.182 264.659 200.532 267.238 218.064 275.886C222.218 277.937 226.155 280.478 230.36 282.392C234.913 284.468 239.663 286.074 245 288.147V333.6C236.043 334.17 227.347 332.626 219.116 328.865C213.47 326.287 208.036 323.167 202.641 320.044C188.674 311.959 175.503 312.34 161.626 321.386C137.434 337.156 112.213 338.498 86.7594 323.993C83.3567 322.052 79.9662 320.073 76.4771 318.306C64.1051 312.049 51.9996 312.261 40.5323 320.591C28.432 329.381 14.9148 333.136 0 333.585V288.564Z" fill="white"/>
<path fill-rule="evenodd" clip-rule="evenodd" d="M245 355.193V400.239C234.671 401.041 225.096 398.99 216.03 394.427C211.119 391.954 206.39 389.09 201.576 386.409C188.135 378.921 175.366 379.299 162.101 387.929C137.49 403.945 111.976 405.533 86.1684 390.497C83.0323 388.67 79.9186 386.778 76.6736 385.187C64.3261 379.139 52.2308 379.045 40.6971 387.378C29.2585 395.643 16.5705 399.79 2.71798 400.25C1.89032 400.275 1.06266 400.253 0 400.253V353.445C7.96387 354.026 14.3329 350.264 20.5931 346.247C45.2881 330.403 70.5845 330.763 96.3163 343.181C99.57 344.752 102.805 346.422 105.884 348.332C117.86 355.762 129.561 355.143 141.221 347.5C150.529 341.401 160.3 336.552 171.428 335.067C188.016 332.853 203.788 335.401 218.791 343.087C221.627 344.541 224.34 346.269 227.23 347.575C232.811 350.1 238.477 352.413 245 355.193Z" fill="white"/>
</g>
</svg>
