<svg width="250" height="224" viewBox="0 0 250 224" fill="none" xmlns="http://www.w3.org/2000/svg">
<g opacity="0.8">
<path fill-rule="evenodd" clip-rule="evenodd" d="M0 35.6882C11.2967 30.8423 22.4311 27.7936 31.7764 21.7565C76.7574 -7.31023 121.994 -5.78739 167.923 18.5449C171.57 20.4809 175.253 22.3717 178.767 24.5519C197.936 36.4451 216.502 34.7595 235.549 23.4784C247.823 16.2079 260.576 8.85905 274.027 4.88157C305.371 -4.38215 336.13 -0.0578773 365.517 14.4378C372.479 17.8755 379.078 22.1334 386.127 25.3419C393.759 28.8219 401.721 31.5147 410.666 34.9886V111.176C395.652 112.132 381.076 109.545 367.28 103.239C357.816 98.9179 348.708 93.689 339.664 88.454C316.253 74.9022 294.176 75.5415 270.916 90.7036C230.365 117.138 188.089 119.387 145.425 95.0731C139.722 91.8194 134.038 88.5023 128.19 85.541C107.452 75.053 87.1611 75.4088 67.9398 89.3707C47.6573 104.105 25.0001 110.398 0 111.152V35.6882Z" fill="white"/>
<path fill-rule="evenodd" clip-rule="evenodd" d="M410.666 147.372V222.877C393.352 224.221 377.304 220.784 362.107 213.134C353.876 208.991 345.949 204.189 337.88 199.695C315.35 187.143 293.946 187.777 271.711 202.244C230.46 229.089 187.693 231.75 144.434 206.547C139.178 203.485 133.959 200.314 128.519 197.647C107.823 187.509 87.5487 187.352 68.216 201.32C49.0427 215.173 27.7753 222.125 4.55585 222.895C3.16853 222.937 1.78121 222.901 0 222.901V144.442C13.3489 145.415 24.0246 139.109 34.5178 132.377C75.9114 105.818 118.313 106.422 161.444 127.237C166.898 129.87 172.32 132.67 177.481 135.871C197.555 148.326 217.169 147.287 236.713 134.476C252.315 124.253 268.694 116.126 287.346 113.637C315.15 109.925 341.587 114.196 366.735 127.08C371.488 129.517 376.035 132.413 380.881 134.603C390.236 138.834 399.733 142.712 410.666 147.372Z" fill="white"/>
</g>
</svg>
