<svg width="250" height="224" viewBox="0 0 250 224" fill="none" xmlns="http://www.w3.org/2000/svg">
<g opacity="0.8">
<path fill-rule="evenodd" clip-rule="evenodd" d="M-160.833 35.6882C-149.536 30.8423 -138.402 27.7936 -129.057 21.7565C-84.0756 -7.31023 -38.8394 -5.78739 7.0898 18.5449C10.7375 20.4809 14.4199 22.3717 17.9342 24.5519C37.1033 36.4451 55.6692 34.7595 74.7165 23.4784C86.9904 16.2079 99.7427 8.85905 113.194 4.88157C144.538 -4.38215 175.297 -0.0578773 204.684 14.4378C211.646 17.8755 218.245 22.1334 225.294 25.3419C232.926 28.8219 240.888 31.5147 249.833 34.9886V111.176C234.819 112.132 220.243 109.545 206.447 103.239C196.983 98.9179 187.875 93.689 178.831 88.454C155.42 74.9022 133.343 75.5415 110.083 90.7036C69.5321 117.138 27.2563 119.387 -15.408 95.0731C-21.1114 91.8194 -26.7946 88.5023 -32.643 85.541C-53.3807 75.053 -73.6719 75.4088 -92.8932 89.3707C-113.176 104.105 -135.833 110.398 -160.833 111.152V35.6882Z" fill="white"/>
<path fill-rule="evenodd" clip-rule="evenodd" d="M249.833 147.372V222.877C232.519 224.221 216.471 220.784 201.274 213.134C193.043 208.991 185.116 204.189 177.047 199.695C154.517 187.143 133.113 187.777 110.878 202.244C69.6267 229.089 26.8603 231.75 -16.3985 206.547C-21.6553 203.485 -26.8744 200.314 -32.3136 197.647C-53.0104 187.509 -73.2843 187.352 -92.617 201.32C-111.79 215.173 -133.058 222.125 -156.277 222.895C-157.664 222.937 -159.052 222.901 -160.833 222.901V144.442C-147.484 145.415 -136.808 139.109 -126.315 132.377C-84.9216 105.818 -42.5201 106.422 0.611313 127.237C6.06502 129.87 11.4868 132.67 16.648 135.871C36.7221 148.326 56.3357 147.287 75.8798 134.476C91.482 124.253 107.861 116.126 126.513 113.637C154.317 109.925 180.754 114.196 205.902 127.08C210.655 129.517 215.202 132.413 220.048 134.603C229.403 138.834 238.9 142.712 249.833 147.372Z" fill="white"/>
</g>
</svg>
