<svg width="148" height="105" viewBox="0 0 148 105" fill="none" xmlns="http://www.w3.org/2000/svg">
<path d="M106.228 68.5138C103.76 67.6497 101.291 66.9708 98.9455 65.9216C85.7376 59.9965 78.0227 47.0355 78.8251 32.3463C79.6891 16.2376 92.465 2.59761 108.389 0.375713C127.583 -2.27822 143.26 10.9297 147.087 27.7791C148.259 32.9018 148.136 38.0862 147.642 43.2706C146.901 51.7879 144.988 60.0582 141.47 67.9583C134.496 83.4498 122.893 94.189 107.463 100.978C104.685 102.212 101.846 103.138 98.9455 104.126C95.551 105.237 92.2799 104.064 90.4283 101.225C88.5767 98.3859 88.8236 94.9296 91.1689 92.2757C97.1557 85.3631 102.278 77.8951 105.858 69.4396C105.982 69.131 106.105 68.8224 106.228 68.5138Z" fill="#EBFBFF"/>
<path d="M27.5987 68.576C25.0682 67.712 22.7846 67.1565 20.6861 66.169C8.89777 60.7994 1.80006 51.665 0.257075 38.7656C-1.96482 20.1881 10.4408 3.7091 28.7714 0.499697C44.8184 -2.27767 60.4334 6.73334 66.6053 22.2866C69.0123 28.3968 69.5061 34.7539 69.0123 41.2344C68.4569 49.3196 66.9756 57.2197 64.0131 64.7495C57.0388 82.4629 44.4481 94.4364 27.0432 101.658C24.6979 102.645 22.3526 103.386 19.9455 104.126C16.7978 105.114 13.6502 104.003 11.7986 101.349C9.88528 98.6333 10.0704 95.3622 12.1072 92.5848C15.6869 87.709 19.39 82.8949 22.7846 77.8957C24.6362 75.0566 25.9323 71.7237 27.5987 68.576Z" fill="#EBFBFF"/>
</svg>
